<?xml version="1.0" standalone="no"?>
<!DOCTYPE svg PUBLIC "-//W3C//DTD SVG 20010904//EN"
 "http://www.w3.org/TR/2001/REC-SVG-20010904/DTD/svg10.dtd">
<svg version="1.0" xmlns="http://www.w3.org/2000/svg"
 width="32.000000pt" height="32.000000pt" viewBox="0 0 512.000000 512.000000"
 preserveAspectRatio="xMidYMid meet">

<g transform="translate(0.000000,512.000000) scale(0.100000,-0.100000)"
fill="#000000" stroke="none">
<path d="M2140 4084 c-375 -48 -694 -242 -897 -547 -335 -502 -257 -1175 183
-1586 232 -217 523 -331 843 -331 278 0 522 80 738 241 l78 59 105 -103 c58
-56 258 -254 445 -440 369 -365 368 -365 420 -312 17 16 25 35 25 57 0 30 -40
72 -440 473 l-439 440 20 25 c135 168 234 385 270 590 18 104 16 335 -6 435
-105 499 -461 863 -955 976 -83 19 -313 33 -390 23z m395 -198 c110 -28 250
-92 347 -157 85 -57 223 -198 282 -288 114 -175 166 -339 173 -556 11 -310
-85 -561 -300 -782 -207 -213 -466 -323 -762 -323 -421 0 -782 226 -967 605
-311 641 80 1393 792 1521 116 21 312 12 435 -20z"/>
</g>
</svg>
