<?xml version="1.0" standalone="no"?>
<!DOCTYPE svg PUBLIC "-//W3C//DTD SVG 20010904//EN"
 "http://www.w3.org/TR/2001/REC-SVG-20010904/DTD/svg10.dtd">
<svg version="1.0" xmlns="http://www.w3.org/2000/svg"
 width="512.000000pt" height="512.000000pt" viewBox="0 0 512.000000 512.000000"
 preserveAspectRatio="xMidYMid meet">

<g transform="translate(0.000000,512.000000) scale(0.100000,-0.100000)"
fill="#000000" stroke="none">
<path d="M681 4784 c-169 -45 -301 -180 -346 -351 -23 -86 -23 -3020 0 -3106
45 -173 178 -307 350 -352 52 -13 244 -15 1555 -15 1311 0 1503 2 1555 15 172
45 305 179 350 352 23 86 23 3020 0 3106 -45 173 -178 307 -350 352 -87 22
-3030 22 -3114 -1z m2605 -970 c53 -39 69 -71 69 -134 0 -63 -16 -95 -69 -134
-27 -21 -35 -21 -1024 -24 -681 -2 -1009 0 -1034 8 -101 29 -140 168 -71 251
52 61 -4 59 1095 56 999 -2 1007 -2 1034 -23z m0 -800 c53 -39 69 -71 69 -134
0 -63 -16 -95 -69 -134 -27 -21 -35 -21 -1024 -24 -681 -2 -1009 0 -1034 8
-101 29 -140 168 -71 251 52 61 -4 59 1095 56 999 -2 1007 -2 1034 -23z m-960
-800 c53 -39 69 -71 69 -134 0 -63 -16 -95 -69 -134 -27 -20 -40 -21 -544 -24
-345 -2 -529 0 -554 8 -101 29 -140 168 -71 251 51 60 39 59 615 56 514 -2
527 -2 554 -23z"/>
<path d="M4478 2558 c-3 -1364 1 -1264 -58 -1420 -29 -78 -106 -194 -175 -263
-69 -69 -185 -146 -263 -175 -156 -59 -56 -55 -1419 -58 -689 -1 -1253 -5
-1253 -8 0 -24 65 -120 115 -171 68 -68 153 -115 240 -133 35 -7 414 -10 1190
-7 l1140 3 80 23 c347 99 597 348 696 696 l23 80 3 1139 c3 780 0 1156 -7
1191 -18 87 -65 172 -133 240 -51 50 -147 115 -171 115 -3 0 -7 -564 -8 -1252z"/>
</g>
</svg>
